<svg width="115" height="116" viewBox="0 0 115 116" fill="none" xmlns="http://www.w3.org/2000/svg">
<path d="M54.6445 67.528V73H29.3485V69.424L40.8445 56.8C42.6525 54.816 43.9165 53.152 44.6365 51.808C45.3725 50.464 45.7405 49.16 45.7405 47.896C45.7405 46.024 45.1405 44.648 43.9405 43.768C42.7405 42.888 40.8045 42.448 38.1325 42.448C36.4845 42.448 34.8605 42.592 33.2605 42.88C31.6605 43.152 30.2125 43.52 28.9165 43.984V38.464C30.1485 38.048 31.6445 37.704 33.4045 37.432C35.1805 37.16 36.9085 37.024 38.5885 37.024C43.3245 37.024 46.8365 37.856 49.1245 39.52C51.4125 41.184 52.5565 43.728 52.5565 47.152C52.5565 48.496 52.3645 49.776 51.9805 50.992C51.5965 52.208 50.9645 53.472 50.0845 54.784C49.2045 56.096 48.0205 57.552 46.5325 59.152L38.7085 67.528H54.6445ZM87.2103 60.064V65.44H82.0023V73H75.7143V65.44H55.9863V61.768L70.3863 37.48H77.1303L63.7863 60.064H75.7143L76.3863 49.48H82.0023V60.064H87.2103Z" fill="#1A1125"/>
<path d="M57 2.99995V5.49995H57.1188L57.237 5.48869L57 2.99995ZM57 113V115.5H57.045L57.09 115.498L57 113ZM115 57C115 55.6192 113.881 54.5 112.5 54.5C111.119 54.5 110 55.6192 110 57H115ZM103.292 33.1728L104.465 35.3806L108.881 33.0348L107.708 30.8271L103.292 33.1728ZM57 113L57.09 115.498C66.7284 115.151 81.1197 111.839 93.1701 102.963C105.337 94.0013 115 79.4378 115 57H112.5H110C110 77.7621 101.163 90.8652 90.2048 98.9371C79.1303 107.094 65.7716 110.182 56.91 110.502L57 113ZM57 2.99995L57.237 5.48869C66.9991 4.55897 90.281 8.68121 103.292 33.1728L105.5 31.9999L107.708 30.8271C93.5189 4.11869 68.001 -0.559073 56.763 0.51121L57 2.99995ZM57 2.99995V0.499949C38.6636 0.499949 24.6276 7.67934 15.1761 18.5469C5.76763 29.365 1.0048 43.7116 0.875113 57.9772C0.745424 72.2431 5.24819 86.6089 14.608 97.4465C24.0124 108.336 38.1848 115.5 57 115.5V113V110.5C39.5652 110.5 26.8002 103.914 18.3921 94.1784C9.93934 84.391 5.7546 71.2568 5.87491 58.0227C5.99522 44.7883 10.4199 31.6349 18.9489 21.828C27.435 12.0706 40.0864 5.49995 57 5.49995V2.99995Z" fill="#1A1125"/>
<path d="M97.5 34L107.5 37L111 27" stroke="#1A1125" stroke-width="5" stroke-linecap="round"/>
</svg>
