<svg width="108" height="119" viewBox="0 0 108 119" fill="none" xmlns="http://www.w3.org/2000/svg">
<path d="M23.4999 39C20.3332 34.6667 15.9 26 23.5 20C27 15 23.5 5.16667 22.5 2.5M43.4999 39C40.3332 34.6667 35.8999 26 43.4999 20C47 15 43.5 5.16667 42.5 2.5M63 39C59.8333 34.6667 55.4001 26 63.0001 20C66.5001 15 63.0002 5.16667 62.0001 2.5M86.5 57V79.5C85.8615 83.2911 84.8535 86.7924 83.5341 90M86.5 57V52.5C86.5 47 83.5 46.5 78 46.5H8C4 46.5 2.5 48.5 2.5 52.5V78C11.7019 124.93 68.3214 126.982 83.5341 90M86.5 57C106.5 57 105.5 56.5 105.5 71.5C105.5 86.5 97.1613 90 83.5341 90" stroke="#1A1125" stroke-width="5" stroke-linecap="round"/>
</svg>
