<svg width="113" height="108" viewBox="0 0 113 108" fill="none" xmlns="http://www.w3.org/2000/svg">
<circle cx="57" cy="33" r="12.5" stroke="#1A1125" stroke-width="5"/>
<path d="M32.3063 48.5C28.8772 41.7872 26.5003 35.4762 26.5002 31C26.5 15.5 42.0001 2.50391 57.0001 2.50391C72.0001 2.50391 87.5 14.5 87.5 31C87.5 39.0816 80.6629 51.9612 73.4513 63M32.3063 48.5L12.5 60L4 103L36.5 90M32.3063 48.5C34.4998 52.794 37.1238 57.2523 39.8316 61.5M36.5 90L39.8316 61.5M36.5 90L76 104M39.8316 61.5C47.5489 73.6057 55.9471 84 57.0001 84C58.0205 84 65.9391 74.4987 73.4513 63M76 104L73.4513 63M76 104L109.5 90L101 45.5L77 56" stroke="#1A1125" stroke-width="5" stroke-linecap="round"/>
</svg>
