<svg width="117" height="117" viewBox="0 0 117 117" fill="none" xmlns="http://www.w3.org/2000/svg">
<path d="M40.1937 36.002C42.992 35.4667 45.7052 35.0652 48.3332 34.7975C50.9855 34.5298 53.7838 34.396 56.7282 34.396C64.8312 34.396 70.9023 35.9168 74.9417 38.9585C79.0053 41.9758 81.0372 46.6843 81.0372 53.084C81.0372 65.6643 72.7882 71.9545 56.2902 71.9545C54.1488 71.9545 51.533 71.8328 48.4427 71.5895V89H40.1937V36.002ZM56.3267 65.8225C60.2687 65.8225 63.4563 65.3723 65.8897 64.472C68.323 63.5473 70.0993 62.1603 71.2187 60.311C72.3623 58.4373 72.9342 56.0405 72.9342 53.1205C72.9342 48.7405 71.6567 45.5407 69.1017 43.521C66.5467 41.5013 62.6412 40.4915 57.3852 40.4915C54.1975 40.4915 51.2167 40.7348 48.4427 41.2215V65.3115C50.8517 65.6522 53.4797 65.8225 56.3267 65.8225Z" fill="#1A1125"/>
<circle cx="58.5" cy="58.5" r="56" stroke="#1A1125" stroke-width="5"/>
</svg>
